<svg id="efMHdzk8OgV1" xmlns="http://www.w3.org/2000/svg" xmlns:xlink="http://www.w3.org/1999/xlink" viewBox="0 0 500 500" shape-rendering="geometricPrecision" text-rendering="geometricPrecision" project-id="73aab7ed53fc4bd5a4524ffb5d4a2d56" export-id="36bf6e0185c140c798b71589064f87fe" cached="false"><defs><linearGradient id="efMHdzk8OgV11-fill" x1="0" y1="0.5" x2="1" y2="0.5" spreadMethod="pad" gradientUnits="objectBoundingBox" gradientTransform="translate(0 0)"><stop id="efMHdzk8OgV11-fill-0" offset="0%" stop-color="#6cac0a"/><stop id="efMHdzk8OgV11-fill-1" offset="100%" stop-color="#009106"/></linearGradient><linearGradient id="efMHdzk8OgV12-fill" x1="0" y1="0.5" x2="1" y2="0.5" spreadMethod="pad" gradientUnits="objectBoundingBox" gradientTransform="translate(0 0)"><stop id="efMHdzk8OgV12-fill-0" offset="0%" stop-color="#6cac0a"/><stop id="efMHdzk8OgV12-fill-1" offset="100%" stop-color="#009106"/></linearGradient><linearGradient id="efMHdzk8OgV13-fill" x1="0" y1="0.5" x2="1" y2="0.5" spreadMethod="pad" gradientUnits="objectBoundingBox" gradientTransform="translate(0 0)"><stop id="efMHdzk8OgV13-fill-0" offset="0%" stop-color="#3cbf04"/><stop id="efMHdzk8OgV13-fill-1" offset="100%" stop-color="#18a101"/></linearGradient><linearGradient id="efMHdzk8OgV14-fill" x1="0" y1="0.5" x2="1" y2="0.5" spreadMethod="pad" gradientUnits="objectBoundingBox" gradientTransform="translate(0 0)"><stop id="efMHdzk8OgV14-fill-0" offset="0%" stop-color="#3cbf04"/><stop id="efMHdzk8OgV14-fill-1" offset="100%" stop-color="#18a101"/></linearGradient></defs><g transform="matrix(1.85 0 0 1.85-122.934027-268.142386)"><path d="M241.15413,283.5361c-.71416.72486-1.42824,1.43144-2.14223,2.11974c5.00292-5.62839,7.3826-10.51945,5.69893-12.73445-2.70041-3.55262-14.831,1.12412-27.09444,10.44578-10.7645,8.18229-18.05329,17.22368-17.84795,21.71433-1.05372.02528-2.10726.01042-3.16061-.04461-.91694-5.28323-6.95705-14.25259-15.82689-22.86897-11.64253-11.30984-23.75165-17.72873-27.04647-14.33698-3.22202,3.3168,3.17821,14.78724,14.35034,25.8691-4.84799-3.60578-9.69211-8.06742-14.53238-13.38492-13.45184-14.77817-26.45602-28.8986-36.66414-42.05007c20.81612-6.15295,35.90551-24.35477,35.90551-45.8517c0-12.50659-5.10737-23.89788-13.47841-32.45007c42.31131-12.36536,86.22004-10.42348,131.72619,5.82564-12.51755,8.44712-20.66238,22.1904-20.66238,37.70918c0,19.9147,13.41262,36.90554,32.26655,43.5326-10.48832,11.19144-24.31886,23.35991-41.49161,36.5054h-.00001Z" transform="translate(0 0.000001)" fill="#3dcd00"/><path d="M201.78713,314.83136c-.02879-.11631-.0575-.2326-.08612-.34885c1.64979-.13127,3.29998-.35429,4.95057-.66904-.78026,3.47799-1.45427,7.39646-1.99968,11.65966-1.01357-3.47919-1.97049-7.02927-2.86478-10.64176l.00001-.00001Zm42.89927-24.43377c10.14329-7.9483,19.22443-15.57876,27.24341-22.89137c3.22782,8.7105,6.11398,18.04917,8.53947,27.84699c13.83762,55.89719,7.44163,105.57115-14.28585,110.9499-12.08536,2.99179-26.36852-8.35091-39.04679-28.62656.97051-7.71797,1.52123-16.54756,1.52123-25.92804c0-18.19127-2.07111-34.31075-5.25851-44.26907c7.08825-4.00772,14.18393-9.70167,21.28705-17.08184l-.00001-.00001Z" transform="translate(.517943 0.517942)" fill="#288402" stroke-width="0"/><path d="M159.37815,351.74851c0-25.76752,3.89113-46.65622,8.69108-46.65622s8.69108,20.8887,8.69108,46.65622c0,4.58585-.12324,9.01716-.35292,13.2037-6.4989-2.28419-12.39923-3.02521-16.77934-2.05023-.1633-3.5738-.2499-7.30935-.2499-11.15348v.00001Zm8.69108,46.65622c-1.36398,0-2.65458-1.68677-3.80335-4.69294c1.4933,1.48084,3.10453,2.94511,4.82328,4.37507-.33454.20993-.67489.31787-1.01993.31787Z" transform="translate(.000001 0.678584)" fill="#3dcd00" stroke-width="0"/><path d="M141.67273,372.98408c14.57838,10.25671,24.00914,21.96469,21.06419,26.1505s-17.15042-.73563-31.72881-10.99234c-4.78406-3.36586-9.01378-6.888-12.43371-10.24932.70534-8.19078-.83291-14.89762-3.56071-15.19003-1.55892-.16711-3.18221,1.79552-4.48253,5.0302-1.22768-2.45197-1.49369-4.45298-.58725-5.74135c2.94495-4.18581,17.15042.73563,31.72881,10.99234h.00001Z" fill="#3dcd00" stroke-width="0"/><ellipse rx="8.691082" ry="46.656223" transform="matrix(-.449128-.048145 0.030677-.286171 112.893856 378.351217)" fill="#3dcd00" stroke-width="0"/><ellipse rx="8.691082" ry="46.656223" transform="matrix(-.433754 0.12606-.080322-.276376 168.609222 385.594214)" fill="#3dcd00" stroke-width="0"/><path d="M189.47574,380.56316c14.57838,10.25671,24.00914,21.96469,21.06419,26.1505s-17.15042-.73563-31.72881-10.99234c-.96427-.67842-1.90602-1.36318-2.82315-2.0517.06981-2.73392-.39033-6.11057-1.41778-9.64588-2.30525-7.93202-6.59339-13.65907-9.57784-12.79171-2.23013.64813-3.10124,4.79505-2.43725,10.15956-4.41257-5.17898-6.3855-9.57882-4.80817-11.82076c2.94495-4.18581,17.15042.73563,31.72881,10.99234v-.00001Z" fill="#3dcd00" stroke-width="0"/><ellipse rx="8.691082" ry="46.656223" transform="translate(215.872241 352.42709)" fill="#3dcd00" stroke-width="0"/><ellipse rx="40.682294" ry="40.45906" transform="matrix(.985506 0 0 0.95856 109.490909 194.199081)" fill="url(#efMHdzk8OgV11-fill)" stroke-width="0"/><ellipse rx="40.682294" ry="40.45906" transform="matrix(.985506 0 0 0.95856 293.680985 204.547786)" fill="url(#efMHdzk8OgV12-fill)" stroke-width="0"/><ellipse rx="33.516361" ry="22.094802" transform="matrix(.774783 0.641078-.250542 0.302796 172.08738 285.765972)" fill="url(#efMHdzk8OgV13-fill)" stroke-width="0"/><ellipse rx="32.011576" ry="27.438494" transform="matrix(.889963-.676477 0.175283 0.2306 226.658419 285.135631)" fill="url(#efMHdzk8OgV14-fill)" stroke-width="0"/></g></svg>
